<mxfile host="app.diagrams.net" modified="2023-11-26T14:05:02.540Z" agent="Mozilla/5.0 (Windows NT 10.0; Win64; x64) AppleWebKit/537.36 (KHTML, like Gecko) Chrome/118.0.0.0 Safari/537.36 OPR/104.0.0.0 (Edition std-1)" etag="dnB3rKhaaeZV_Vtq9-A2" version="22.1.4" type="github">
  <diagram name="Seite-1" id="OXkxgQvWDy9cVKW653cp">
    <mxGraphModel dx="1009" dy="542" grid="1" gridSize="10" guides="1" tooltips="1" connect="1" arrows="1" fold="1" page="1" pageScale="1" pageWidth="827" pageHeight="1169" math="0" shadow="0">
      <root>
        <mxCell id="0" />
        <mxCell id="1" parent="0" />
        <mxCell id="gxa01ytoDyefAKeziYTw-1" value="Taktgeber-Block" style="whiteSpace=wrap;html=1;fillColor=#FFFFFF;verticalAlign=top;" vertex="1" parent="1">
          <mxGeometry x="188" y="82" width="553" height="470" as="geometry" />
        </mxCell>
        <mxCell id="gxa01ytoDyefAKeziYTw-3" style="edgeStyle=orthogonalEdgeStyle;rounded=1;orthogonalLoop=1;jettySize=auto;html=1;endArrow=none;endFill=0;strokeColor=#000000;" edge="1" parent="1" source="gxa01ytoDyefAKeziYTw-10" target="gxa01ytoDyefAKeziYTw-13">
          <mxGeometry relative="1" as="geometry">
            <Array as="points">
              <mxPoint x="130" y="408" />
              <mxPoint x="130" y="508" />
            </Array>
          </mxGeometry>
        </mxCell>
        <mxCell id="gxa01ytoDyefAKeziYTw-4" style="edgeStyle=orthogonalEdgeStyle;rounded=1;orthogonalLoop=1;jettySize=auto;html=1;endArrow=none;endFill=0;strokeColor=#000000;" edge="1" parent="1" source="gxa01ytoDyefAKeziYTw-10" target="gxa01ytoDyefAKeziYTw-18">
          <mxGeometry relative="1" as="geometry">
            <Array as="points">
              <mxPoint x="130" y="408" />
              <mxPoint x="130" y="454" />
            </Array>
          </mxGeometry>
        </mxCell>
        <mxCell id="gxa01ytoDyefAKeziYTw-5" style="edgeStyle=orthogonalEdgeStyle;rounded=1;orthogonalLoop=1;jettySize=auto;html=1;endArrow=none;endFill=0;strokeColor=#000000;" edge="1" parent="1" source="gxa01ytoDyefAKeziYTw-10" target="gxa01ytoDyefAKeziYTw-12">
          <mxGeometry relative="1" as="geometry" />
        </mxCell>
        <mxCell id="gxa01ytoDyefAKeziYTw-6" style="edgeStyle=orthogonalEdgeStyle;rounded=1;orthogonalLoop=1;jettySize=auto;html=1;endArrow=none;endFill=0;strokeColor=#000000;" edge="1" parent="1" source="gxa01ytoDyefAKeziYTw-10" target="gxa01ytoDyefAKeziYTw-14">
          <mxGeometry relative="1" as="geometry">
            <Array as="points">
              <mxPoint x="130" y="408" />
              <mxPoint x="130" y="367" />
            </Array>
          </mxGeometry>
        </mxCell>
        <mxCell id="gxa01ytoDyefAKeziYTw-7" style="edgeStyle=orthogonalEdgeStyle;rounded=1;orthogonalLoop=1;jettySize=auto;html=1;endArrow=none;endFill=0;strokeColor=#000000;" edge="1" parent="1" source="gxa01ytoDyefAKeziYTw-10" target="gxa01ytoDyefAKeziYTw-11">
          <mxGeometry relative="1" as="geometry">
            <Array as="points">
              <mxPoint x="130" y="408" />
              <mxPoint x="130" y="321" />
            </Array>
          </mxGeometry>
        </mxCell>
        <mxCell id="gxa01ytoDyefAKeziYTw-10" value="Spieler" style="shape=umlActor;verticalLabelPosition=bottom;labelBackgroundColor=#ffffff;verticalAlign=top;html=1;fillColor=none;" vertex="1" parent="1">
          <mxGeometry x="52.5" y="377.5" width="30" height="60" as="geometry" />
        </mxCell>
        <mxCell id="gxa01ytoDyefAKeziYTw-11" value="Taktfrequenz festlegen" style="ellipse;whiteSpace=wrap;html=1;fillColor=#0e6e7c;fontColor=#FFFFFF;" vertex="1" parent="1">
          <mxGeometry x="206" y="300.5" width="160" height="40" as="geometry" />
        </mxCell>
        <mxCell id="gxa01ytoDyefAKeziYTw-12" value="Schrittweisen Modus aktivieren" style="ellipse;whiteSpace=wrap;html=1;fillColor=#0e6e7c;fontColor=#FFFFFF;" vertex="1" parent="1">
          <mxGeometry x="423.5" y="387.5" width="160" height="40" as="geometry" />
        </mxCell>
        <mxCell id="gxa01ytoDyefAKeziYTw-13" value="Nächsten Schritt im schrittweisen Modus auslösen" style="ellipse;whiteSpace=wrap;html=1;fillColor=#0e6e7c;fontColor=#FFFFFF;" vertex="1" parent="1">
          <mxGeometry x="304" y="480.5" width="160" height="54" as="geometry" />
        </mxCell>
        <mxCell id="gxa01ytoDyefAKeziYTw-14" value="Echtzeitmodus aktivieren" style="ellipse;whiteSpace=wrap;html=1;fillColor=#008e74;fontColor=#FFFFFF;" vertex="1" parent="1">
          <mxGeometry x="312.5" y="347" width="160" height="40" as="geometry" />
        </mxCell>
        <mxCell id="gxa01ytoDyefAKeziYTw-18" value="Programm starten" style="ellipse;whiteSpace=wrap;html=1;fillColor=#234f7c;fontColor=#FFFFFF;" vertex="1" parent="1">
          <mxGeometry x="563.5" y="426.5" width="160" height="54" as="geometry" />
        </mxCell>
      </root>
    </mxGraphModel>
  </diagram>
</mxfile>
